<?xml version="1.0" encoding="iso-8859-1"?>
<!-- Generator: Adobe Illustrator 18.1.1, SVG Export Plug-In . SVG Version: 6.00 Build 0)  -->
<svg version="1.1" id="Capa_1" xmlns="http://www.w3.org/2000/svg" xmlns:xlink="http://www.w3.org/1999/xlink" x="0px" y="0px"
	 viewBox="0 0 32 32" style="enable-background:new 0 0 32 32;" xml:space="preserve">
<g>
	<g>
		<path style="fill:#030104;" d="M16,13.5c-3.526,0-6.444,2.607-6.929,6H11.1c0.463-2.282,2.481-4,4.9-4
			c1.895,0,3.544,1.055,4.393,2.607L19,19.5h1h0.9h2.029H23v-4l-1.15,1.15C20.598,14.753,18.443,13.5,16,13.5z"/>
		<path style="fill:#030104;" d="M16,25.5c-1.895,0-3.544-1.055-4.392-2.607L13,21.5h-1.9H9.071H9v1v2v1l1.15-1.15
			c1.252,1.897,3.405,3.15,5.849,3.15c3.526,0,6.444-2.607,6.929-6H20.9C20.438,23.782,18.419,25.5,16,25.5z"/>
		<path style="fill:#030104;" d="M27.586,12.712C26.66,10.251,24.284,8.5,21.5,8.5c-0.641,0-1.26,0.093-1.846,0.266
			C18.068,6.205,15.233,4.5,12,4.5c-4.904,0-8.894,3.924-8.998,8.803C1.207,14.342,0,16.283,0,18.5c0,3.312,2.688,6,6,6h1v-2H5.997
			C3.794,22.5,2,20.709,2,18.5c0-1.893,1.317-3.482,3.087-3.896C5.029,14.245,5,13.876,5,13.5c0-3.866,3.134-7,7-7
			c3.162,0,5.834,2.097,6.702,4.975c0.769-0.611,1.739-0.975,2.798-0.975c2.316,0,4.225,1.75,4.473,4h0.03
			c2.203,0,3.997,1.791,3.997,4c0,2.205-1.789,4-3.997,4h-1.226c-0.159,0.701-0.401,1.371-0.713,2H26c3.312,0,6-2.693,6-6
			C32,15.735,30.13,13.407,27.586,12.712z"/>
	</g>
</g>
<g>
</g>
<g>
</g>
<g>
</g>
<g>
</g>
<g>
</g>
<g>
</g>
<g>
</g>
<g>
</g>
<g>
</g>
<g>
</g>
<g>
</g>
<g>
</g>
<g>
</g>
<g>
</g>
<g>
</g>
</svg>
